REM DIRINDEX 1\2\3,1\2\4,1\2\5,1\2\6
REM DIRNAME folder01,folder02,folder03,folder04,folder05,folder06
TITLE ""
FILE "094 094.mp3" MP3
  TRACK 01 AUDIO
    TITLE "0:"
    INDEX 01 00:00:00
  TRACK 02 AUDIO
    TITLE "3:cjc157_3548"
    INDEX 01 00:00:09
  TRACK 03 AUDIO
    TITLE "0:"
    INDEX 01 00:01:21
  TRACK 04 AUDIO
    TITLE "4:cjc157_3549"
    INDEX 01 00:01:69
  TRACK 05 AUDIO
    TITLE "0:"
    INDEX 01 00:02:73
  TRACK 06 AUDIO
    TITLE "5:cjc157_3550"
    INDEX 01 00:03:49
  TRACK 07 AUDIO
    TITLE "0:"
    INDEX 01 00:05:26
  TRACK 08 AUDIO
    TITLE "5:cjc157_3551"
    INDEX 01 00:05:73
  TRACK 09 AUDIO
    TITLE "0:"
    INDEX 01 00:08:17
  TRACK 10 AUDIO
    TITLE "3:cjc157_3552"
    INDEX 01 00:08:60
  TRACK 11 AUDIO
    TITLE "0:"
    INDEX 01 00:10:18
  TRACK 12 AUDIO
    TITLE "4:cjc157_3553"
    INDEX 01 00:10:63
  TRACK 13 AUDIO
    TITLE "0:"
    INDEX 01 00:12:09
  TRACK 14 AUDIO
    TITLE "5:cjc157_3554"
    INDEX 01 00:12:52
  TRACK 15 AUDIO
    TITLE "0:"
    INDEX 01 00:16:04
  TRACK 16 AUDIO
    TITLE "5:cjc157_3555"
    INDEX 01 00:16:51
  TRACK 17 AUDIO
    TITLE "0:"
    INDEX 01 00:20:69
  TRACK 18 AUDIO
    TITLE "3:cjc157_3556"
    INDEX 01 00:21:35
  TRACK 19 AUDIO
    TITLE "0:"
    INDEX 01 00:22:25
  TRACK 20 AUDIO
    TITLE "4:cjc157_3557"
    INDEX 01 00:22:74
  TRACK 21 AUDIO
    TITLE "0:"
    INDEX 01 00:24:08
  TRACK 22 AUDIO
    TITLE "5:cjc157_3558"
    INDEX 01 00:24:55
  TRACK 23 AUDIO
    TITLE "0:"
    INDEX 01 00:27:36
  TRACK 24 AUDIO
    TITLE "3:cjc157_3559"
    INDEX 01 00:28:00
  TRACK 25 AUDIO
    TITLE "0:"
    INDEX 01 00:29:05
  TRACK 26 AUDIO
    TITLE "4:cjc157_3560"
    INDEX 01 00:29:50
  TRACK 27 AUDIO
    TITLE "0:"
    INDEX 01 00:30:67
  TRACK 28 AUDIO
    TITLE "5:cjc157_3561"
    INDEX 01 00:31:37
  TRACK 29 AUDIO
    TITLE "0:"
    INDEX 01 00:33:21
  TRACK 30 AUDIO
    TITLE "5:cjc157_3562"
    INDEX 01 00:33:66
  TRACK 31 AUDIO
    TITLE "0:"
    INDEX 01 00:36:35
  TRACK 32 AUDIO
    TITLE "3:cjc157_3563"
    INDEX 01 00:37:03
  TRACK 33 AUDIO
    TITLE "0:"
    INDEX 01 00:38:26
  TRACK 34 AUDIO
    TITLE "4:cjc157_3564"
    INDEX 01 00:38:71
  TRACK 35 AUDIO
    TITLE "0:"
    INDEX 01 00:40:24
  TRACK 36 AUDIO
    TITLE "5:cjc157_3565"
    INDEX 01 00:40:73
  TRACK 37 AUDIO
    TITLE "0:"
    INDEX 01 00:44:12
  TRACK 38 AUDIO
    TITLE "3:cjc157_3566"
    INDEX 01 00:44:60
  TRACK 39 AUDIO
    TITLE "0:"
    INDEX 01 00:46:07
  TRACK 40 AUDIO
    TITLE "4:cjc157_3567"
    INDEX 01 00:46:53
  TRACK 41 AUDIO
    TITLE "0:"
    INDEX 01 00:48:02
  TRACK 42 AUDIO
    TITLE "5:cjc157_3568"
    INDEX 01 00:48:48
  TRACK 43 AUDIO
    TITLE "0:"
    INDEX 01 00:50:60
  TRACK 44 AUDIO
    TITLE "5:cjc157_3569"
    INDEX 01 00:51:30
  TRACK 45 AUDIO
    TITLE "0:"
    INDEX 01 00:53:09
  TRACK 46 AUDIO
    TITLE "3:cjc157_3570"
    INDEX 01 00:53:57
  TRACK 47 AUDIO
    TITLE "0:"
    INDEX 01 00:54:68
  TRACK 48 AUDIO
    TITLE "4:cjc157_3571"
    INDEX 01 00:55:36
  TRACK 49 AUDIO
    TITLE "0:"
    INDEX 01 00:56:49
  TRACK 50 AUDIO
    TITLE "5:cjc157_3572"
    INDEX 01 00:57:21
  TRACK 51 AUDIO
    TITLE "0:"
    INDEX 01 00:58:69
  TRACK 52 AUDIO
    TITLE "3:cjc157_3573"
    INDEX 01 00:59:38
  TRACK 53 AUDIO
    TITLE "0:"
    INDEX 01 01:00:35
  TRACK 54 AUDIO
    TITLE "4:cjc157_3574"
    INDEX 01 01:01:09
  TRACK 55 AUDIO
    TITLE "0:"
    INDEX 01 01:02:01
  TRACK 56 AUDIO
    TITLE "5:cjc157_3575"
    INDEX 01 01:02:46
  TRACK 57 AUDIO
    TITLE "0:"
    INDEX 01 01:05:38
  TRACK 58 AUDIO
    TITLE "5:cjc157_3576"
    INDEX 01 01:06:12
  TRACK 59 AUDIO
    TITLE "0:"
    INDEX 01 01:08:52
  TRACK 60 AUDIO
    TITLE "3:cjc157_3577"
    INDEX 01 01:09:24
  TRACK 61 AUDIO
    TITLE "0:"
    INDEX 01 01:10:49
  TRACK 62 AUDIO
    TITLE "4:cjc157_3578"
    INDEX 01 01:11:19
  TRACK 63 AUDIO
    TITLE "0:"
    INDEX 01 01:12:15
  TRACK 64 AUDIO
    TITLE "5:cjc157_3579"
    INDEX 01 01:12:71
  TRACK 65 AUDIO
    TITLE "0:"
    INDEX 01 01:15:01
  TRACK 66 AUDIO
    TITLE "3:cjc157_3580"
    INDEX 01 01:15:46
  TRACK 67 AUDIO
    TITLE "0:"
    INDEX 01 01:16:38
  TRACK 68 AUDIO
    TITLE "4:cjc157_3581"
    INDEX 01 01:17:08
  TRACK 69 AUDIO
    TITLE "0:"
    INDEX 01 01:18:21
  TRACK 70 AUDIO
    TITLE "5:cjc157_3582"
    INDEX 01 01:18:68
  TRACK 71 AUDIO
    TITLE "0:"
    INDEX 01 01:21:27
